<svg xmlns="http://www.w3.org/2000/svg" viewBox="0 0 293.71 45.14"><defs><style>.cls-1{isolation:isolate;}</style></defs><g id="Layer_2" data-name="Layer 2"><g id="Layer_1-2" data-name="Layer 1"><g id="Group_6517" data-name="Group 6517"><g id="Group_1" data-name="Group 1"><path id="Path_1" data-name="Path 1" d="M211,31.31V44.23h4.35V31.31h3V28.4h-3v-.95a2,2,0,0,1,.37-1.37,1.64,1.64,0,0,1,1.28-.43,12.16,12.16,0,0,1,1.6.09V22.49l-1.14-.06a11.12,11.12,0,0,0-1.16-.06,5.33,5.33,0,0,0-4,1.35A4.76,4.76,0,0,0,211,27.18V28.4h-2.6v2.91Z"/><path id="Path_2" data-name="Path 2" d="M235.09,44.23V28.4h-4.35v8.3a5.92,5.92,0,0,1-.8,3.49,3,3,0,0,1-2.57,1,2.36,2.36,0,0,1-2.17-.95,5.64,5.64,0,0,1-.62-2.94V28.4h-4.34v9.74a13.53,13.53,0,0,0,.24,2.69,5.36,5.36,0,0,0,.92,2.05,4.15,4.15,0,0,0,1.75,1.29,7.78,7.78,0,0,0,2.87.46,6.42,6.42,0,0,0,2.7-.61,4.9,4.9,0,0,0,2.14-2h.1v2.2Z"/><path id="Path_3" data-name="Path 3" d="M243.9,28.4V23.66h-4.34V28.4h-2.64v2.91h2.64v9.34a4,4,0,0,0,.4,1.93A2.83,2.83,0,0,0,241,43.71a4.44,4.44,0,0,0,1.59.52,12.45,12.45,0,0,0,1.93.15l1.32,0c.41,0,.82-.06,1.22-.12V40.86c-.21,0-.43.07-.64.09s-.46,0-.7,0a1.47,1.47,0,0,1-1.84-1,1.57,1.57,0,0,1,0-.86V31.31h3.18V28.4Z"/><path id="Path_4" data-name="Path 4" d="M264,44.23V28.4h-4.34v8.3a5.92,5.92,0,0,1-.8,3.49,3,3,0,0,1-2.57,1,2.41,2.41,0,0,1-2.18-.95,5.73,5.73,0,0,1-.61-2.94V28.4h-4.35v9.74a14.33,14.33,0,0,0,.25,2.69,5.36,5.36,0,0,0,.92,2.05,4.19,4.19,0,0,0,1.74,1.29,7.84,7.84,0,0,0,2.88.46,6.41,6.41,0,0,0,2.69-.61,5,5,0,0,0,2.15-2h.09v2.2Z"/><path id="Path_5" data-name="Path 5" d="M267.32,28.4V44.22h4.35V37.1a8.85,8.85,0,0,1,.21-2,4.45,4.45,0,0,1,.7-1.59,3.61,3.61,0,0,1,1.35-1.1,4.65,4.65,0,0,1,2-.4,5.79,5.79,0,0,1,.83.06,4.55,4.55,0,0,1,.73.09v-4a3,3,0,0,0-.95-.15,5.07,5.07,0,0,0-1.59.24,5.65,5.65,0,0,0-1.44.7A4.86,4.86,0,0,0,272.34,30a5.22,5.22,0,0,0-.83,1.35h-.06V28.4Z"/><path id="Path_6" data-name="Path 6" d="M282.26,37.37h11.42a11,11,0,0,0-.31-3.52,8.27,8.27,0,0,0-1.41-3,6.58,6.58,0,0,0-2.45-2.08A7.35,7.35,0,0,0,286,28a8.14,8.14,0,0,0-3.31.64,7.88,7.88,0,0,0-4.2,4.41,9.35,9.35,0,0,0-.58,3.31,9.88,9.88,0,0,0,.56,3.36,7.81,7.81,0,0,0,1.62,2.64A7.08,7.08,0,0,0,282.63,44a9.23,9.23,0,0,0,3.37.58,8.27,8.27,0,0,0,4.59-1.22,7.31,7.31,0,0,0,2.82-4.08h-3.83a2.75,2.75,0,0,1-1.17,1.41,4.47,4.47,0,0,1-5.08-.3,4.45,4.45,0,0,1-1.07-3.06m7.07-2.76h-7.07a6.12,6.12,0,0,1,.18-1,3.55,3.55,0,0,1,.59-1.1,3.32,3.32,0,0,1,1.1-.86,3.74,3.74,0,0,1,1.74-.37,3,3,0,0,1,2.36.86,4.91,4.91,0,0,1,1.1,2.51"/><path id="Path_7" data-name="Path 7" d="M197.65,10.32h4.25a5.87,5.87,0,0,0-.74-2.63,5.49,5.49,0,0,0-1.68-1.87,6.81,6.81,0,0,0-2.33-1.13,9.39,9.39,0,0,0-2.69-.37A8.75,8.75,0,0,0,191,5a7,7,0,0,0-2.54,1.81,7.62,7.62,0,0,0-1.59,2.72,10.36,10.36,0,0,0-.52,3.4,9,9,0,0,0,.58,3.28,7.65,7.65,0,0,0,1.62,2.54,7.34,7.34,0,0,0,2.51,1.68,8.77,8.77,0,0,0,3.28.58,7.85,7.85,0,0,0,5.17-1.65A7.18,7.18,0,0,0,202,14.51H197.8a4.17,4.17,0,0,1-1.07,2.36,3.16,3.16,0,0,1-2.39.86,3.07,3.07,0,0,1-1.72-.46,3.61,3.61,0,0,1-1.13-1.17,5.7,5.7,0,0,1-.58-1.62,8.42,8.42,0,0,1-.18-1.74,8.88,8.88,0,0,1,.18-1.78,5.38,5.38,0,0,1,.61-1.65,3.89,3.89,0,0,1,1.16-1.23,3,3,0,0,1,1.75-.49,2.92,2.92,0,0,1,3.2,2.6.62.62,0,0,1,0,.13"/><path id="Path_8" data-name="Path 8" d="M219.29,20.57V4.75h-4.35v8.3a5.9,5.9,0,0,1-.8,3.48,3,3,0,0,1-2.57,1,2.41,2.41,0,0,1-2.18-.95,5.75,5.75,0,0,1-.61-2.94V4.75h-4.35v9.74a14.33,14.33,0,0,0,.25,2.69,5.36,5.36,0,0,0,.92,2.05,4.27,4.27,0,0,0,1.74,1.29,7.63,7.63,0,0,0,2.88.45,6.34,6.34,0,0,0,2.7-.61,4.9,4.9,0,0,0,2.14-2h.09v2.2Z"/><path id="Path_9" data-name="Path 9" d="M226,15.43h-4.14a5,5,0,0,0,2.39,4.35,7.48,7.48,0,0,0,2.36.92,13.49,13.49,0,0,0,2.69.27,12.83,12.83,0,0,0,2.63-.27,6.67,6.67,0,0,0,2.33-.89,4.85,4.85,0,0,0,1.62-1.69,4.94,4.94,0,0,0,.65-2.63,3.7,3.7,0,0,0-.43-1.84,3.76,3.76,0,0,0-1.13-1.25,5.83,5.83,0,0,0-1.63-.83c-.6-.2-1.21-.38-1.83-.52l-1.81-.4c-.59-.12-1.12-.26-1.59-.4a3.6,3.6,0,0,1-1.1-.61,1.2,1.2,0,0,1-.43-1,1.13,1.13,0,0,1,.25-.77,1.52,1.52,0,0,1,.58-.45,2.4,2.4,0,0,1,.8-.19,5.29,5.29,0,0,1,.8-.06,4.19,4.19,0,0,1,2,.46A1.88,1.88,0,0,1,232,9.36h4.12a5,5,0,0,0-.77-2.42,4.75,4.75,0,0,0-1.56-1.56,6.57,6.57,0,0,0-2.17-.82,12.2,12.2,0,0,0-2.48-.25,12.35,12.35,0,0,0-2.51.25,6.4,6.4,0,0,0-2.2.8,4.35,4.35,0,0,0-1.6,1.53,5,5,0,0,0-.58,2.51,3.41,3.41,0,0,0,.43,1.77,3.81,3.81,0,0,0,1.13,1.2,7.29,7.29,0,0,0,1.59.77c.61.18,1.24.34,1.87.49a25.36,25.36,0,0,1,3.61,1q1.32.48,1.32,1.47a1.72,1.72,0,0,1-.28,1,2.41,2.41,0,0,1-.7.61,4.23,4.23,0,0,1-.92.34,5.27,5.27,0,0,1-2.2-.07,3.12,3.12,0,0,1-1-.46,2.87,2.87,0,0,1-.77-.82,2.6,2.6,0,0,1-.27-1.23"/><path id="Path_10" data-name="Path 10" d="M244.54,4.75V0H240.2V4.75h-2.64v2.9h2.64V17a4,4,0,0,0,.4,1.93,2.77,2.77,0,0,0,1.07,1.13,4.26,4.26,0,0,0,1.59.52,11.34,11.34,0,0,0,1.93.16l1.32,0a10.1,10.1,0,0,0,1.22-.13V17.21c-.21,0-.43.07-.64.09s-.47,0-.7,0a1.48,1.48,0,0,1-1.84-1,1.4,1.4,0,0,1,0-.86V7.66h3.18V4.75Z"/><path id="Path_11" data-name="Path 11" d="M249.32,12.67a9.78,9.78,0,0,0,.58,3.43,7.64,7.64,0,0,0,1.65,2.64,7.54,7.54,0,0,0,2.58,1.65,10.09,10.09,0,0,0,6.73,0,7.34,7.34,0,0,0,2.6-1.65,7.67,7.67,0,0,0,1.66-2.64,10.47,10.47,0,0,0,0-6.86,7.34,7.34,0,0,0-1.66-2.63,7,7,0,0,0-2.6-1.68,9.51,9.51,0,0,0-6.73,0,7.11,7.11,0,0,0-2.58,1.68,7.46,7.46,0,0,0-1.65,2.63,9.78,9.78,0,0,0-.58,3.43m4.35,0a9.69,9.69,0,0,1,.18-1.86,5.17,5.17,0,0,1,.61-1.63,3.7,3.7,0,0,1,1.2-1.13,3.91,3.91,0,0,1,3.67,0,3.26,3.26,0,0,1,1.2,1.13,4.79,4.79,0,0,1,.64,1.63,9.75,9.75,0,0,1,0,3.73,5,5,0,0,1-.64,1.62,3.1,3.1,0,0,1-1.2,1.13,4.09,4.09,0,0,1-3.67,0,3.5,3.5,0,0,1-1.2-1.13,5.47,5.47,0,0,1-.61-1.62,9.79,9.79,0,0,1-.18-1.87"/><path id="Path_12" data-name="Path 12" d="M268.64,4.75V20.57H273V11.39a4.28,4.28,0,0,1,.33-1.87,3,3,0,0,1,.8-1.1,2.58,2.58,0,0,1,1-.52,2.89,2.89,0,0,1,.82-.15,2.69,2.69,0,0,1,1.57.37,1.77,1.77,0,0,1,.76.92,3.72,3.72,0,0,1,.28,1.28q0,.67,0,1.38v8.87h4.35V11.76a11.48,11.48,0,0,1,.09-1.44A3.93,3.93,0,0,1,283.43,9a2.61,2.61,0,0,1,.89-.92,2.79,2.79,0,0,1,1.5-.37,2.85,2.85,0,0,1,1.43.31,2.07,2.07,0,0,1,.83.83,3.27,3.27,0,0,1,.34,1.22q.06.71.06,1.5v9h4.35V10a7.21,7.21,0,0,0-.43-2.6,4.5,4.5,0,0,0-1.2-1.78,4.78,4.78,0,0,0-1.83-1,8.33,8.33,0,0,0-2.33-.3,5.06,5.06,0,0,0-2.88.8A6.76,6.76,0,0,0,282.26,7a3.81,3.81,0,0,0-1.9-2,6.37,6.37,0,0,0-2.72-.58,5.78,5.78,0,0,0-2.79.67,6.31,6.31,0,0,0-2.05,1.9h-.06V4.75Z"/><rect id="Rectangle_5" data-name="Rectangle 5" x="186.26" y="25.52" width="18.8" height="18.8" rx="5"/></g><g id="We_are_an_independent_republic_of_customfuture_SA_-_a_global_innovation_and_design_firm." data-name="We are an independent republic of customfuture SA - a global innovation and design firm." class="cls-1"><g class="cls-1"><path d="M12.41,4.44,9.46,12.9H8.62L6.2,6,3.79,12.9H3L0,4.44H1l2.4,7.07L5.86,4.44H6.6L9,11.52l2.43-7.08Z"/><path d="M18,10.13H13.73a2.27,2.27,0,0,0,.55,1.54,1.89,1.89,0,0,0,1.43.52,2.91,2.91,0,0,0,1.87-.69l.32.7a2.67,2.67,0,0,1-1,.57A3.68,3.68,0,0,1,15.7,13a2.87,2.87,0,0,1-2.16-.8A3.07,3.07,0,0,1,12.76,10a3.51,3.51,0,0,1,.34-1.59,2.61,2.61,0,0,1,1-1.07,2.68,2.68,0,0,1,1.44-.39,2.31,2.31,0,0,1,1.82.76A3.11,3.11,0,0,1,18,9.77Zm-3.7-2a2.2,2.2,0,0,0-.55,1.35h3.4a2.11,2.11,0,0,0-.45-1.36,1.5,1.5,0,0,0-1.17-.47A1.63,1.63,0,0,0,14.3,8.15Z"/><path d="M26.68,7.48a2.45,2.45,0,0,1,.55,1.74V12.9h-.95v-1a1.66,1.66,0,0,1-.7.8A2,2,0,0,1,24.5,13a2.35,2.35,0,0,1-1-.22,1.89,1.89,0,0,1-.75-.64,1.52,1.52,0,0,1-.28-.9,1.46,1.46,0,0,1,.34-1,2,2,0,0,1,1.1-.52A10.63,10.63,0,0,1,26,9.5h.26V9.11A1.54,1.54,0,0,0,26,8.05a1.25,1.25,0,0,0-1-.33,3.72,3.72,0,0,0-2,.62l-.32-.71a3.87,3.87,0,0,1,1.1-.52A4.28,4.28,0,0,1,25,6.91,2.2,2.2,0,0,1,26.68,7.48Zm-.86,4.25a1.77,1.77,0,0,0,.46-1.25v-.35h-.22a10.58,10.58,0,0,0-1.6.09,1.59,1.59,0,0,0-.79.3.77.77,0,0,0-.23.62,1,1,0,0,0,.34.77,1.26,1.26,0,0,0,.86.31A1.58,1.58,0,0,0,25.82,11.73Z"/><path d="M32.38,7.75l-.64.06a1.86,1.86,0,0,0-1.3.57A1.76,1.76,0,0,0,30,9.56V12.9h-1V7.06h1v1a2.15,2.15,0,0,1,1.93-1.14l.35,0Z"/><path d="M38.14,10.13H33.86a2.32,2.32,0,0,0,.56,1.54,1.87,1.87,0,0,0,1.42.52,2.93,2.93,0,0,0,1.88-.69l.32.7a2.76,2.76,0,0,1-1,.57,3.7,3.7,0,0,1-1.23.21,2.84,2.84,0,0,1-2.15-.8A3,3,0,0,1,32.89,10a3.51,3.51,0,0,1,.35-1.59,2.54,2.54,0,0,1,1-1.07,2.67,2.67,0,0,1,1.43-.39,2.32,2.32,0,0,1,1.83.76,3.11,3.11,0,0,1,.66,2.1Zm-3.71-2a2.19,2.19,0,0,0-.54,1.35h3.39a2.05,2.05,0,0,0-.44-1.36,1.51,1.51,0,0,0-1.18-.47A1.63,1.63,0,0,0,34.43,8.15Z"/><path d="M46.82,7.48a2.45,2.45,0,0,1,.54,1.74V12.9h-.94v-1a1.77,1.77,0,0,1-.7.8,2,2,0,0,1-1.08.28,2.4,2.4,0,0,1-1-.22,2,2,0,0,1-.75-.64,1.59,1.59,0,0,1-.27-.9,1.5,1.5,0,0,1,.33-1A2,2,0,0,1,44,9.67a10.58,10.58,0,0,1,2.13-.17h.27V9.11a1.54,1.54,0,0,0-.3-1.06,1.27,1.27,0,0,0-1-.33,3.69,3.69,0,0,0-2,.62l-.32-.71a3.94,3.94,0,0,1,1.09-.52,4.34,4.34,0,0,1,1.25-.2A2.21,2.21,0,0,1,46.82,7.48ZM46,11.73a1.73,1.73,0,0,0,.47-1.25v-.35H46.2a10.83,10.83,0,0,0-1.61.09,1.51,1.51,0,0,0-.78.3.77.77,0,0,0-.24.62,1,1,0,0,0,.34.77,1.28,1.28,0,0,0,.86.31A1.56,1.56,0,0,0,46,11.73Z"/><path d="M54.24,9.23V12.9h-1V9.29A1.82,1.82,0,0,0,53,8.1a1.25,1.25,0,0,0-1-.37,1.71,1.71,0,0,0-1.29.49,1.82,1.82,0,0,0-.48,1.33V12.9h-1V7.06h1V8a2,2,0,0,1,.8-.83,2.54,2.54,0,0,1,1.18-.28C53.54,6.91,54.24,7.68,54.24,9.23Z"/><path d="M60.31,4.52v1.1H59.14V4.52ZM59.23,7.06h1V12.9h-1Z"/><path d="M67.12,9.23V12.9h-1V9.29a1.82,1.82,0,0,0-.31-1.19,1.27,1.27,0,0,0-1-.37,1.7,1.7,0,0,0-1.28.49,1.82,1.82,0,0,0-.48,1.33V12.9h-1V7.06h1V8a2,2,0,0,1,.8-.83A2.5,2.5,0,0,1,65,6.91C66.42,6.91,67.12,7.68,67.12,9.23Z"/><path d="M74.13,4.44V12.9h-1V11.83a1.87,1.87,0,0,1-.77.85,2.31,2.31,0,0,1-1.19.3,2.38,2.38,0,0,1-1.36-.38,2.52,2.52,0,0,1-.91-1.07,3.7,3.7,0,0,1-.33-1.61,3.6,3.6,0,0,1,.33-1.58,2.43,2.43,0,0,1,.91-1.06,2.54,2.54,0,0,1,1.36-.37,2.31,2.31,0,0,1,1.19.3,1.92,1.92,0,0,1,.77.85V4.44ZM72.7,11.6A2.59,2.59,0,0,0,73.16,10,2.59,2.59,0,0,0,72.7,8.3a1.59,1.59,0,0,0-1.31-.57,1.64,1.64,0,0,0-1.33.57,2.54,2.54,0,0,0-.47,1.62,2.65,2.65,0,0,0,.47,1.67,1.63,1.63,0,0,0,1.33.59A1.57,1.57,0,0,0,72.7,11.6Z"/><path d="M80.89,10.13H76.62a2.27,2.27,0,0,0,.55,1.54,1.89,1.89,0,0,0,1.43.52,2.91,2.91,0,0,0,1.87-.69l.32.7a2.67,2.67,0,0,1-1,.57,3.68,3.68,0,0,1-1.22.21,2.87,2.87,0,0,1-2.16-.8A3.07,3.07,0,0,1,75.65,10,3.39,3.39,0,0,1,76,8.37,2.52,2.52,0,0,1,77,7.3a2.68,2.68,0,0,1,1.44-.39,2.31,2.31,0,0,1,1.82.76,3.11,3.11,0,0,1,.66,2.1Zm-3.7-2a2.2,2.2,0,0,0-.55,1.35H80a2.05,2.05,0,0,0-.45-1.36,1.5,1.5,0,0,0-1.17-.47A1.63,1.63,0,0,0,77.19,8.15Z"/><path d="M86.67,7.3a2.48,2.48,0,0,1,.92,1.07,3.81,3.81,0,0,1,.32,1.6,3.73,3.73,0,0,1-.32,1.59,2.53,2.53,0,0,1-.91,1,2.45,2.45,0,0,1-1.36.37,2.32,2.32,0,0,1-1.2-.3,1.93,1.93,0,0,1-.77-.85v3.23h-1v-8h1v1a2,2,0,0,1,.77-.85,2.32,2.32,0,0,1,1.2-.3A2.38,2.38,0,0,1,86.67,7.3Zm-.22,4.3A2.51,2.51,0,0,0,86.92,10a2.63,2.63,0,0,0-.47-1.65,1.79,1.79,0,0,0-2.64,0A2.59,2.59,0,0,0,83.35,10a2.59,2.59,0,0,0,.46,1.65,1.59,1.59,0,0,0,1.32.58A1.61,1.61,0,0,0,86.45,11.6Z"/><path d="M94.32,10.13H90.05a2.27,2.27,0,0,0,.55,1.54,1.87,1.87,0,0,0,1.43.52,2.91,2.91,0,0,0,1.87-.69l.32.7a2.67,2.67,0,0,1-1,.57A3.7,3.7,0,0,1,92,13a2.84,2.84,0,0,1-2.15-.8A3.07,3.07,0,0,1,89.07,10a3.51,3.51,0,0,1,.35-1.59,2.54,2.54,0,0,1,1-1.07,2.67,2.67,0,0,1,1.43-.39,2.32,2.32,0,0,1,1.83.76,3.11,3.11,0,0,1,.66,2.1Zm-3.7-2a2.2,2.2,0,0,0-.55,1.35h3.4A2.11,2.11,0,0,0,93,8.14a1.5,1.5,0,0,0-1.17-.47A1.6,1.6,0,0,0,90.62,8.15Z"/><path d="M100.85,9.23V12.9h-1V9.29a1.82,1.82,0,0,0-.31-1.19,1.27,1.27,0,0,0-1-.37,1.7,1.7,0,0,0-1.28.49,1.82,1.82,0,0,0-.48,1.33V12.9h-1V7.06h1V8a2,2,0,0,1,.8-.83,2.51,2.51,0,0,1,1.18-.28C100.15,6.91,100.85,7.68,100.85,9.23Z"/><path d="M107.87,4.44V12.9h-1V11.83a1.87,1.87,0,0,1-.77.85,2.31,2.31,0,0,1-1.19.3,2.38,2.38,0,0,1-1.36-.38,2.52,2.52,0,0,1-.91-1.07,3.7,3.7,0,0,1-.33-1.61,3.6,3.6,0,0,1,.33-1.58,2.43,2.43,0,0,1,.91-1.06,2.54,2.54,0,0,1,1.36-.37,2.31,2.31,0,0,1,1.19.3,1.92,1.92,0,0,1,.77.85V4.44Zm-1.44,7.16a2.59,2.59,0,0,0,.46-1.65,2.59,2.59,0,0,0-.46-1.65,1.59,1.59,0,0,0-1.31-.57,1.64,1.64,0,0,0-1.33.57,2.54,2.54,0,0,0-.47,1.62,2.65,2.65,0,0,0,.47,1.67,1.63,1.63,0,0,0,1.33.59A1.57,1.57,0,0,0,106.43,11.6Z"/><path d="M114.62,10.13h-4.27a2.32,2.32,0,0,0,.55,1.54,1.89,1.89,0,0,0,1.43.52,2.91,2.91,0,0,0,1.87-.69l.33.7a2.8,2.8,0,0,1-1,.57,3.68,3.68,0,0,1-1.22.21,2.88,2.88,0,0,1-2.16-.8,3.07,3.07,0,0,1-.78-2.22,3.39,3.39,0,0,1,.35-1.59,2.52,2.52,0,0,1,1-1.07,2.68,2.68,0,0,1,1.44-.39,2.31,2.31,0,0,1,1.82.76,3.11,3.11,0,0,1,.66,2.1Zm-3.7-2a2.2,2.2,0,0,0-.55,1.35h3.4a2.11,2.11,0,0,0-.44-1.36,1.52,1.52,0,0,0-1.18-.47A1.63,1.63,0,0,0,110.92,8.15Z"/><path d="M121.15,9.23V12.9h-1V9.29a1.82,1.82,0,0,0-.32-1.19,1.25,1.25,0,0,0-1-.37,1.71,1.71,0,0,0-1.29.49,1.82,1.82,0,0,0-.48,1.33V12.9h-1V7.06h1V8a2,2,0,0,1,.8-.83,2.54,2.54,0,0,1,1.18-.28C120.45,6.91,121.15,7.68,121.15,9.23Z"/><path d="M126.08,12.17l0,.77a3.7,3.7,0,0,1-.6,0,2.12,2.12,0,0,1-1.59-.55,2.14,2.14,0,0,1-.53-1.53V7.82h-1.14V7.06h1.14V5.28h1V7.06h1.66v.76h-1.66v3c0,.92.43,1.38,1.27,1.38A4.58,4.58,0,0,0,126.08,12.17Z"/><path d="M133.59,7.75l-.63.06a1.84,1.84,0,0,0-1.3.57,1.76,1.76,0,0,0-.41,1.18V12.9h-1V7.06h.95v1a2.15,2.15,0,0,1,1.93-1.14l.35,0Z"/><path d="M139.35,10.13h-4.27a2.32,2.32,0,0,0,.55,1.54,1.9,1.9,0,0,0,1.43.52,2.89,2.89,0,0,0,1.87-.69l.33.7a2.8,2.8,0,0,1-1,.57,3.64,3.64,0,0,1-1.22.21,2.84,2.84,0,0,1-2.15-.8,3,3,0,0,1-.79-2.22,3.51,3.51,0,0,1,.35-1.59,2.54,2.54,0,0,1,1-1.07,2.64,2.64,0,0,1,1.43-.39,2.3,2.3,0,0,1,1.82.76,3.11,3.11,0,0,1,.66,2.1Zm-3.7-2a2.14,2.14,0,0,0-.54,1.35h3.39a2.05,2.05,0,0,0-.44-1.36,1.51,1.51,0,0,0-1.18-.47A1.63,1.63,0,0,0,135.65,8.15Z"/><path d="M145.14,7.3a2.52,2.52,0,0,1,.91,1.07,3.66,3.66,0,0,1,.32,1.6,3.58,3.58,0,0,1-.32,1.59,2.53,2.53,0,0,1-.91,1,2.43,2.43,0,0,1-1.36.37,2.31,2.31,0,0,1-1.19-.3,2,2,0,0,1-.78-.85v3.23h-1v-8h1v1a2,2,0,0,1,.78-.85,2.31,2.31,0,0,1,1.19-.3A2.41,2.41,0,0,1,145.14,7.3Zm-.23,4.3a2.51,2.51,0,0,0,.47-1.63,2.63,2.63,0,0,0-.47-1.65,1.59,1.59,0,0,0-1.32-.59,1.57,1.57,0,0,0-1.31.57,2.59,2.59,0,0,0-.47,1.65,2.59,2.59,0,0,0,.47,1.65,1.55,1.55,0,0,0,1.31.58A1.59,1.59,0,0,0,144.91,11.6Z"/><path d="M152.81,7.06V12.9h-.95v-1a1.91,1.91,0,0,1-.78.81A2.29,2.29,0,0,1,150,13a2,2,0,0,1-1.57-.58,2.49,2.49,0,0,1-.53-1.72V7.06h1v3.6a1.71,1.71,0,0,0,.32,1.14,1.18,1.18,0,0,0,1,.37,1.65,1.65,0,0,0,1.24-.5,1.84,1.84,0,0,0,.46-1.31V7.06Z"/><path d="M159,7.28a2.45,2.45,0,0,1,.92,1.06,3.74,3.74,0,0,1,.32,1.58,3.85,3.85,0,0,1-.32,1.61A2.54,2.54,0,0,1,159,12.6a2.37,2.37,0,0,1-1.35.38,2.32,2.32,0,0,1-1.2-.3,1.93,1.93,0,0,1-.77-.85V12.9h-1V4.44h1V8.06a2,2,0,0,1,.77-.85,2.32,2.32,0,0,1,1.2-.3A2.53,2.53,0,0,1,159,7.28Zm-.22,4.31a2.65,2.65,0,0,0,.46-1.67,2.54,2.54,0,0,0-.46-1.62,1.63,1.63,0,0,0-1.32-.57,1.61,1.61,0,0,0-1.32.57,2.59,2.59,0,0,0-.46,1.65,2.59,2.59,0,0,0,.46,1.65,1.59,1.59,0,0,0,1.32.58A1.62,1.62,0,0,0,158.75,11.59Z"/><path d="M161.72,4.44h1V12.9h-1Z"/><path d="M165.65,4.52v1.1h-1.18V4.52Zm-1.08,2.54h1V12.9h-1Z"/><path d="M168.38,12.61a2.55,2.55,0,0,1-1-1,3.58,3.58,0,0,1-.34-1.59,3.4,3.4,0,0,1,.36-1.6,2.5,2.5,0,0,1,1-1.07,2.85,2.85,0,0,1,1.51-.39,3.29,3.29,0,0,1,1.15.21,2.47,2.47,0,0,1,.91.56l-.32.72A2.63,2.63,0,0,0,170,7.73a1.74,1.74,0,0,0-1.41.59,2.48,2.48,0,0,0-.5,1.65,2.41,2.41,0,0,0,.5,1.63,1.77,1.77,0,0,0,1.41.58,2.63,2.63,0,0,0,1.68-.67l.32.72a2.83,2.83,0,0,1-.93.55,3.35,3.35,0,0,1-1.17.2A2.93,2.93,0,0,1,168.38,12.61Z"/></g><g class="cls-1"><path d="M15.16,27.61a2.49,2.49,0,0,1-1-1.06,3.93,3.93,0,0,1,0-3.2,2.52,2.52,0,0,1,1-1.07,3.07,3.07,0,0,1,2.92,0,2.48,2.48,0,0,1,1,1.07,3.93,3.93,0,0,1,0,3.2,2.45,2.45,0,0,1-1,1.06,3.07,3.07,0,0,1-2.92,0Zm2.79-1A2.63,2.63,0,0,0,18.41,25a2.59,2.59,0,0,0-.47-1.65,1.59,1.59,0,0,0-1.32-.58,1.59,1.59,0,0,0-1.32.58A2.59,2.59,0,0,0,14.83,25a2.61,2.61,0,0,0,.46,1.65,1.59,1.59,0,0,0,1.33.58A1.61,1.61,0,0,0,18,26.61Z"/><path d="M22.2,22.06h1.66v.76H22.2V27.9h-1V22.82H20.09v-.76h1.14v-.2a2.43,2.43,0,0,1,.58-1.76,2.65,2.65,0,0,1,1.79-.67l.48,0,.08.76-.56,0a1.52,1.52,0,0,0-1.06.41,1.58,1.58,0,0,0-.34,1.12Z"/><path d="M29,27.61a2.49,2.49,0,0,1-1-1.05A3.45,3.45,0,0,1,27.71,25a3.52,3.52,0,0,1,.35-1.6,2.59,2.59,0,0,1,1-1.07,2.84,2.84,0,0,1,1.5-.39,3.3,3.3,0,0,1,1.16.21,2.56,2.56,0,0,1,.91.56l-.33.72a2.63,2.63,0,0,0-1.68-.67,1.72,1.72,0,0,0-1.4.59,2.43,2.43,0,0,0-.5,1.65,2.36,2.36,0,0,0,.5,1.63,1.75,1.75,0,0,0,1.4.58,2.63,2.63,0,0,0,1.68-.67l.33.72a2.78,2.78,0,0,1-.94.55,3.26,3.26,0,0,1-1.16.2A2.88,2.88,0,0,1,29,27.61Z"/><path d="M38.78,22.06V27.9h-1v-1a1.89,1.89,0,0,1-.77.81,2.29,2.29,0,0,1-1.12.27,2,2,0,0,1-1.57-.58,2.44,2.44,0,0,1-.53-1.72V22.06h1v3.6a1.76,1.76,0,0,0,.31,1.14,1.22,1.22,0,0,0,1,.37,1.61,1.61,0,0,0,1.23-.5,1.8,1.8,0,0,0,.47-1.31v-3.3Z"/><path d="M40.3,27.23l.32-.72a3.12,3.12,0,0,0,1,.53,3.44,3.44,0,0,0,1.1.16,1.82,1.82,0,0,0,1-.22.71.71,0,0,0,.34-.64.69.69,0,0,0-.22-.55,1.74,1.74,0,0,0-.76-.33l-1-.22a2.28,2.28,0,0,1-1.14-.58,1.37,1.37,0,0,1-.4-1,1.52,1.52,0,0,1,.61-1.26,2.57,2.57,0,0,1,1.63-.48,3.51,3.51,0,0,1,1.17.2,2.39,2.39,0,0,1,.92.57l-.32.71a2.67,2.67,0,0,0-1.77-.69,1.63,1.63,0,0,0-1,.24.73.73,0,0,0-.34.65.76.76,0,0,0,.21.56,1.35,1.35,0,0,0,.67.32l1,.24a2.49,2.49,0,0,1,1.21.58,1.34,1.34,0,0,1,.4,1,1.46,1.46,0,0,1-.62,1.23,2.79,2.79,0,0,1-1.68.45A3.43,3.43,0,0,1,40.3,27.23Z"/><path d="M49.51,27.17l0,.77a3.7,3.7,0,0,1-.6,0,1.89,1.89,0,0,1-2.12-2.08V22.82H45.6v-.76h1.14V20.28h1v1.78h1.66v.76H47.71v3c0,.92.43,1.38,1.27,1.38A4.71,4.71,0,0,0,49.51,27.17Z"/><path d="M51.52,27.61a2.49,2.49,0,0,1-1-1.06,3.93,3.93,0,0,1,0-3.2,2.52,2.52,0,0,1,1-1.07,3.07,3.07,0,0,1,2.92,0,2.48,2.48,0,0,1,1,1.07,3.93,3.93,0,0,1,0,3.2,2.45,2.45,0,0,1-1,1.06,3.07,3.07,0,0,1-2.92,0Zm2.79-1A2.63,2.63,0,0,0,54.77,25a2.59,2.59,0,0,0-.47-1.65,1.79,1.79,0,0,0-2.64,0A2.59,2.59,0,0,0,51.19,25a2.55,2.55,0,0,0,.46,1.65,1.59,1.59,0,0,0,1.33.58A1.61,1.61,0,0,0,54.31,26.61Z"/><path d="M65.72,24.23V27.9h-1V24.28a2,2,0,0,0-.28-1.18,1.06,1.06,0,0,0-.91-.37,1.43,1.43,0,0,0-1.15.49A2,2,0,0,0,62,24.56V27.9H61V24.28a2,2,0,0,0-.29-1.19,1.09,1.09,0,0,0-.91-.36,1.42,1.42,0,0,0-1.15.49,2,2,0,0,0-.42,1.34V27.9h-1V22.06h1V23a1.86,1.86,0,0,1,.73-.79,2,2,0,0,1,1.08-.28,1.72,1.72,0,0,1,1.78,1.15,1.9,1.9,0,0,1,.77-.84,2.24,2.24,0,0,1,1.18-.31C65.08,21.91,65.72,22.68,65.72,24.23Z"/><path d="M68.85,22.06h1.66v.76H68.85V27.9h-1V22.82H66.74v-.76h1.14v-.2a2.43,2.43,0,0,1,.59-1.76,2.61,2.61,0,0,1,1.79-.67l.48,0,.07.76-.55,0a1.55,1.55,0,0,0-1.07.41,1.63,1.63,0,0,0-.34,1.12Z"/><path d="M76.48,22.06V27.9h-1v-1a2,2,0,0,1-.78.81,2.29,2.29,0,0,1-1.12.27,2,2,0,0,1-1.57-.58,2.49,2.49,0,0,1-.53-1.72V22.06h1v3.6a1.71,1.71,0,0,0,.32,1.14,1.18,1.18,0,0,0,1,.37,1.65,1.65,0,0,0,1.24-.5,1.84,1.84,0,0,0,.46-1.31v-3.3Z"/><path d="M81.44,27.17l0,.77a3.91,3.91,0,0,1-.61,0,1.89,1.89,0,0,1-2.12-2.08V22.82H77.53v-.76h1.14V20.28h1v1.78H81.3v.76H79.64v3c0,.92.43,1.38,1.28,1.38A4.53,4.53,0,0,0,81.44,27.17Z"/><path d="M87.41,22.06V27.9h-1v-1a1.91,1.91,0,0,1-.78.81,2.29,2.29,0,0,1-1.12.27A2,2,0,0,1,83,27.4a2.49,2.49,0,0,1-.53-1.72V22.06h1v3.6a1.71,1.71,0,0,0,.32,1.14,1.2,1.2,0,0,0,1,.37,1.63,1.63,0,0,0,1.24-.5,1.84,1.84,0,0,0,.46-1.31v-3.3Z"/><path d="M92.59,22.75l-.63.06a1.87,1.87,0,0,0-1.31.57,1.76,1.76,0,0,0-.4,1.18V27.9h-1V22.06h1v1a2.14,2.14,0,0,1,1.93-1.14l.35,0Z"/><path d="M98.35,25.13H94.08a2.27,2.27,0,0,0,.55,1.54,1.89,1.89,0,0,0,1.43.52,2.91,2.91,0,0,0,1.87-.69l.32.7a2.67,2.67,0,0,1-1,.57,3.68,3.68,0,0,1-1.22.21,2.87,2.87,0,0,1-2.16-.8A3.07,3.07,0,0,1,93.11,25a3.51,3.51,0,0,1,.34-1.59,2.61,2.61,0,0,1,1-1.07,2.68,2.68,0,0,1,1.44-.39,2.31,2.31,0,0,1,1.82.76,3.11,3.11,0,0,1,.66,2.1Zm-3.7-2a2.2,2.2,0,0,0-.55,1.35h3.4a2.11,2.11,0,0,0-.45-1.36,1.5,1.5,0,0,0-1.17-.47A1.63,1.63,0,0,0,94.65,23.15Z"/><path d="M102.66,26.93l.38-.76a4.08,4.08,0,0,0,1.28.76,4.67,4.67,0,0,0,1.52.23,2.69,2.69,0,0,0,1.57-.4,1.29,1.29,0,0,0,.55-1.12.94.94,0,0,0-.26-.68,1.79,1.79,0,0,0-.7-.42,10.93,10.93,0,0,0-1.16-.32,13.82,13.82,0,0,1-1.62-.48,2.55,2.55,0,0,1-1-.72,1.86,1.86,0,0,1-.38-1.23,2.26,2.26,0,0,1,.37-1.28,2.4,2.4,0,0,1,1.08-.86,4.12,4.12,0,0,1,1.63-.31,4.91,4.91,0,0,1,1.64.28,3.68,3.68,0,0,1,1.29.79l-.38.76a3.88,3.88,0,0,0-1.21-.75,3.67,3.67,0,0,0-1.34-.24,2.49,2.49,0,0,0-1.54.42,1.36,1.36,0,0,0-.56,1.16,1.08,1.08,0,0,0,.49,1,4.77,4.77,0,0,0,1.49.55c.73.17,1.3.34,1.72.48a2.53,2.53,0,0,1,1,.67,1.66,1.66,0,0,1,.42,1.19,2.16,2.16,0,0,1-.38,1.26,2.38,2.38,0,0,1-1.09.83,4.19,4.19,0,0,1-1.65.3A4.57,4.57,0,0,1,102.66,26.93Z"/><path d="M116.1,25.73h-4.42l-.93,2.17h-1l3.72-8.46h.85L118,27.9h-1Zm-.35-.82-1.86-4.33L112,24.91Z"/><path d="M122.33,24.3h3.36v.8h-3.36Z"/><path d="M134.72,22.48a2.45,2.45,0,0,1,.54,1.74V27.9h-.95v-1a1.69,1.69,0,0,1-.69.8,2,2,0,0,1-1.08.28,2.4,2.4,0,0,1-1-.22,1.89,1.89,0,0,1-.75-.64,1.6,1.6,0,0,1-.28-.9,1.5,1.5,0,0,1,.34-1,2,2,0,0,1,1.11-.52,10.58,10.58,0,0,1,2.13-.17h.26v-.39a1.54,1.54,0,0,0-.3-1.06,1.25,1.25,0,0,0-1-.33,3.69,3.69,0,0,0-2,.62l-.33-.71a4,4,0,0,1,1.1-.52,4.28,4.28,0,0,1,1.24-.2A2.22,2.22,0,0,1,134.72,22.48Zm-.87,4.25a1.72,1.72,0,0,0,.46-1.25v-.35h-.21a10.73,10.73,0,0,0-1.61.09,1.59,1.59,0,0,0-.79.3.8.8,0,0,0-.23.62,1,1,0,0,0,.34.77,1.28,1.28,0,0,0,.86.31A1.58,1.58,0,0,0,133.85,26.73Z"/><path d="M145.49,22.06V27.5a2.67,2.67,0,0,1-.68,2,2.71,2.71,0,0,1-2,.66,4.15,4.15,0,0,1-2.58-.79l.33-.72a4.51,4.51,0,0,0,1.1.55,3.47,3.47,0,0,0,1.15.17,1.67,1.67,0,0,0,1.27-.45,1.82,1.82,0,0,0,.44-1.31v-1a1.86,1.86,0,0,1-.78.86,2.44,2.44,0,0,1-1.23.3,2.58,2.58,0,0,1-1.36-.36,2.4,2.4,0,0,1-.92-1,3.69,3.69,0,0,1,0-3.05,2.4,2.4,0,0,1,.92-1,2.58,2.58,0,0,1,1.36-.36,2.34,2.34,0,0,1,1.21.3,1.89,1.89,0,0,1,.78.85v-1ZM144,26.36a2.29,2.29,0,0,0,.48-1.54,2.26,2.26,0,0,0-.47-1.53,1.86,1.86,0,0,0-2.66,0,2.22,2.22,0,0,0-.49,1.53,2.24,2.24,0,0,0,.49,1.54,1.68,1.68,0,0,0,1.33.56A1.66,1.66,0,0,0,144,26.36Z"/><path d="M147.35,19.44h1V27.9h-1Z"/><path d="M151.16,27.61a2.52,2.52,0,0,1-1-1.06,3.93,3.93,0,0,1,0-3.2,2.54,2.54,0,0,1,1-1.07,2.87,2.87,0,0,1,1.45-.37,2.94,2.94,0,0,1,1.47.37,2.54,2.54,0,0,1,1,1.07,3.93,3.93,0,0,1,0,3.2,2.52,2.52,0,0,1-1,1.06,2.84,2.84,0,0,1-1.47.37A2.77,2.77,0,0,1,151.16,27.61Zm2.78-1A2.57,2.57,0,0,0,154.4,25a2.53,2.53,0,0,0-.47-1.65,1.59,1.59,0,0,0-1.32-.58,1.61,1.61,0,0,0-1.32.58,2.59,2.59,0,0,0-.46,1.65,2.55,2.55,0,0,0,.46,1.65,1.59,1.59,0,0,0,1.32.58A1.61,1.61,0,0,0,153.94,26.61Z"/><path d="M161.21,22.28a2.5,2.5,0,0,1,.91,1.06,3.74,3.74,0,0,1,.32,1.58,3.85,3.85,0,0,1-.32,1.61,2.59,2.59,0,0,1-.91,1.07,2.43,2.43,0,0,1-1.36.38,2.29,2.29,0,0,1-1.19-.3,2,2,0,0,1-.78-.85V27.9h-1V19.44h1v3.62a2,2,0,0,1,.78-.85,2.29,2.29,0,0,1,1.19-.3A2.59,2.59,0,0,1,161.21,22.28ZM161,26.59a2.65,2.65,0,0,0,.47-1.67A2.54,2.54,0,0,0,161,23.3a1.81,1.81,0,0,0-2.64,0,2.65,2.65,0,0,0-.46,1.65,2.65,2.65,0,0,0,.46,1.65,1.78,1.78,0,0,0,2.64,0Z"/><path d="M168,22.48a2.41,2.41,0,0,1,.55,1.74V27.9h-.95v-1a1.66,1.66,0,0,1-.7.8,2,2,0,0,1-1.08.28,2.35,2.35,0,0,1-1-.22,1.89,1.89,0,0,1-.75-.64,1.52,1.52,0,0,1-.28-.9,1.46,1.46,0,0,1,.34-1,2,2,0,0,1,1.1-.52,10.63,10.63,0,0,1,2.14-.17h.26v-.39a1.54,1.54,0,0,0-.3-1.06,1.25,1.25,0,0,0-1-.33,3.74,3.74,0,0,0-2,.62l-.32-.71a3.87,3.87,0,0,1,1.1-.52,4.28,4.28,0,0,1,1.24-.2A2.2,2.2,0,0,1,168,22.48Zm-.86,4.25a1.72,1.72,0,0,0,.46-1.25v-.35h-.22a10.58,10.58,0,0,0-1.6.09,1.59,1.59,0,0,0-.79.3.77.77,0,0,0-.23.62,1,1,0,0,0,.34.77,1.26,1.26,0,0,0,.86.31A1.58,1.58,0,0,0,167.13,26.73Z"/><path d="M170.37,19.44h1V27.9h-1Z"/></g><g class="cls-1"><path d="M27.84,34.52v1.1H26.66v-1.1Zm-1.08,2.54h1V42.9h-1Z"/><path d="M34.64,39.23V42.9h-1V39.29a1.76,1.76,0,0,0-.32-1.19,1.25,1.25,0,0,0-1-.37,1.69,1.69,0,0,0-1.28.49,1.82,1.82,0,0,0-.48,1.33V42.9h-1V37.06h1v1a2,2,0,0,1,.81-.83,2.47,2.47,0,0,1,1.17-.28C33.94,36.91,34.64,37.68,34.64,39.23Z"/><path d="M41.52,39.23V42.9h-1V39.29a1.82,1.82,0,0,0-.32-1.19,1.25,1.25,0,0,0-1-.37,1.71,1.71,0,0,0-1.29.49,1.82,1.82,0,0,0-.48,1.33V42.9h-1V37.06h1v1a2,2,0,0,1,.8-.83,2.54,2.54,0,0,1,1.18-.28C40.82,36.91,41.52,37.68,41.52,39.23Z"/><path d="M44.32,42.61a2.49,2.49,0,0,1-1-1.06,3.93,3.93,0,0,1,0-3.2,2.52,2.52,0,0,1,1-1.07,3.07,3.07,0,0,1,2.92,0,2.48,2.48,0,0,1,1,1.07,3.93,3.93,0,0,1,0,3.2,2.45,2.45,0,0,1-1,1.06,3.07,3.07,0,0,1-2.92,0Zm2.79-1A2.63,2.63,0,0,0,47.57,40a2.59,2.59,0,0,0-.47-1.65,1.79,1.79,0,0,0-2.64,0,3.16,3.16,0,0,0,0,3.3,1.59,1.59,0,0,0,1.33.58A1.61,1.61,0,0,0,47.11,41.61Z"/><path d="M55.16,37.07,52.64,42.9h-.91l-2.51-5.83h1l2,4.77,2-4.77Z"/><path d="M60.16,37.48a2.41,2.41,0,0,1,.55,1.74V42.9h-1v-1a1.66,1.66,0,0,1-.7.8A2,2,0,0,1,58,43a2.35,2.35,0,0,1-1-.22,1.89,1.89,0,0,1-.75-.64,1.52,1.52,0,0,1-.28-.9,1.46,1.46,0,0,1,.34-1,2,2,0,0,1,1.1-.52,10.63,10.63,0,0,1,2.14-.17h.26v-.39a1.54,1.54,0,0,0-.3-1.06,1.25,1.25,0,0,0-1-.33,3.74,3.74,0,0,0-2,.62l-.32-.71a3.87,3.87,0,0,1,1.1-.52,4.28,4.28,0,0,1,1.24-.2A2.2,2.2,0,0,1,60.16,37.48Zm-.86,4.25a1.72,1.72,0,0,0,.46-1.25v-.35h-.22a10.58,10.58,0,0,0-1.6.09,1.59,1.59,0,0,0-.79.3.77.77,0,0,0-.23.62,1,1,0,0,0,.34.77,1.26,1.26,0,0,0,.86.31A1.58,1.58,0,0,0,59.3,41.73Z"/><path d="M65.64,42.17l0,.77a3.7,3.7,0,0,1-.6,0,1.89,1.89,0,0,1-2.12-2.08V37.82H61.73v-.76h1.14V35.28h1v1.78H65.5v.76H63.84v3c0,.92.42,1.38,1.27,1.38A4.71,4.71,0,0,0,65.64,42.17Z"/><path d="M67.76,34.52v1.1H66.59v-1.1Zm-1.08,2.54h1V42.9h-1Z"/><path d="M70.49,42.61a2.49,2.49,0,0,1-1-1.06,3.93,3.93,0,0,1,0-3.2,2.52,2.52,0,0,1,1-1.07A2.9,2.9,0,0,1,72,36.91a3,3,0,0,1,1.47.37,2.46,2.46,0,0,1,1,1.07,3.83,3.83,0,0,1,0,3.2,2.43,2.43,0,0,1-1,1.06A2.87,2.87,0,0,1,72,43,2.81,2.81,0,0,1,70.49,42.61Zm2.79-1A2.57,2.57,0,0,0,73.74,40a2.59,2.59,0,0,0-.47-1.65,1.79,1.79,0,0,0-2.64,0A2.59,2.59,0,0,0,70.16,40a2.55,2.55,0,0,0,.47,1.65,1.57,1.57,0,0,0,1.32.58A1.61,1.61,0,0,0,73.28,41.61Z"/><path d="M81.29,39.23V42.9h-1V39.29A1.82,1.82,0,0,0,80,38.1a1.26,1.26,0,0,0-1-.37,1.7,1.7,0,0,0-1.28.49,1.82,1.82,0,0,0-.48,1.33V42.9h-1V37.06h1v1a2,2,0,0,1,.8-.83,2.54,2.54,0,0,1,1.18-.28C80.59,36.91,81.29,37.68,81.29,39.23Z"/><path d="M90.32,37.48a2.45,2.45,0,0,1,.54,1.74V42.9h-.94v-1a1.77,1.77,0,0,1-.7.8,2,2,0,0,1-1.08.28,2.4,2.4,0,0,1-1-.22,2,2,0,0,1-.75-.64,1.59,1.59,0,0,1-.27-.9,1.5,1.5,0,0,1,.33-1,2,2,0,0,1,1.11-.52,10.58,10.58,0,0,1,2.13-.17h.27v-.39a1.54,1.54,0,0,0-.3-1.06,1.27,1.27,0,0,0-1-.33,3.69,3.69,0,0,0-2,.62l-.32-.71a3.94,3.94,0,0,1,1.09-.52,4.34,4.34,0,0,1,1.25-.2A2.21,2.21,0,0,1,90.32,37.48Zm-.87,4.25a1.73,1.73,0,0,0,.47-1.25v-.35H89.7a10.83,10.83,0,0,0-1.61.09,1.51,1.51,0,0,0-.78.3.77.77,0,0,0-.24.62,1,1,0,0,0,.34.77,1.28,1.28,0,0,0,.86.31A1.56,1.56,0,0,0,89.45,41.73Z"/><path d="M97.74,39.23V42.9h-1V39.29a1.82,1.82,0,0,0-.32-1.19,1.25,1.25,0,0,0-1-.37,1.71,1.71,0,0,0-1.29.49,1.82,1.82,0,0,0-.48,1.33V42.9h-1V37.06h1v1a2,2,0,0,1,.8-.83,2.54,2.54,0,0,1,1.18-.28C97,36.91,97.74,37.68,97.74,39.23Z"/><path d="M104.76,34.44V42.9h-1V41.83a2,2,0,0,1-.78.85,2.29,2.29,0,0,1-1.19.3,2.43,2.43,0,0,1-1.36-.38,2.59,2.59,0,0,1-.91-1.07,3.85,3.85,0,0,1-.32-1.61,3.74,3.74,0,0,1,.32-1.58,2.5,2.5,0,0,1,.91-1.06,2.59,2.59,0,0,1,1.36-.37,2.29,2.29,0,0,1,1.19.3,2,2,0,0,1,.78.85V34.44Zm-1.43,7.16a3.19,3.19,0,0,0,0-3.3,1.81,1.81,0,0,0-2.64,0,2.48,2.48,0,0,0-.48,1.62,2.59,2.59,0,0,0,.48,1.67,1.78,1.78,0,0,0,2.64,0Z"/><path d="M115,34.44V42.9h-1V41.83a2,2,0,0,1-.78.85A2.29,2.29,0,0,1,112,43a2.4,2.4,0,0,1-1.36-.38,2.59,2.59,0,0,1-.91-1.07,3.85,3.85,0,0,1-.32-1.61,3.74,3.74,0,0,1,.32-1.58,2.5,2.5,0,0,1,.91-1.06,2.56,2.56,0,0,1,1.36-.37,2.29,2.29,0,0,1,1.19.3,2,2,0,0,1,.78.85V34.44Zm-1.43,7.16a3.19,3.19,0,0,0,0-3.3,1.61,1.61,0,0,0-1.32-.57,1.64,1.64,0,0,0-1.33.57,2.54,2.54,0,0,0-.47,1.62,2.65,2.65,0,0,0,.47,1.67,1.63,1.63,0,0,0,1.33.59A1.59,1.59,0,0,0,113.53,41.6Z"/><path d="M121.71,40.13h-4.27a2.27,2.27,0,0,0,.56,1.54,1.87,1.87,0,0,0,1.42.52,2.89,2.89,0,0,0,1.87-.69l.33.7a2.72,2.72,0,0,1-1,.57,3.6,3.6,0,0,1-1.22.21,2.84,2.84,0,0,1-2.15-.8,3,3,0,0,1-.79-2.22,3.51,3.51,0,0,1,.35-1.59,2.54,2.54,0,0,1,1-1.07,2.67,2.67,0,0,1,1.43-.39,2.32,2.32,0,0,1,1.83.76,3.11,3.11,0,0,1,.65,2.1Zm-3.7-2a2.19,2.19,0,0,0-.54,1.35h3.39a2.05,2.05,0,0,0-.44-1.36,1.51,1.51,0,0,0-1.18-.47A1.63,1.63,0,0,0,118,38.15Z"/><path d="M122.84,42.23l.33-.72a3.12,3.12,0,0,0,1,.53,3.44,3.44,0,0,0,1.1.16,1.82,1.82,0,0,0,1-.22.71.71,0,0,0,.34-.64.7.7,0,0,0-.23-.55,1.64,1.64,0,0,0-.75-.33l-1-.22a2.37,2.37,0,0,1-1.14-.58,1.4,1.4,0,0,1-.39-1,1.52,1.52,0,0,1,.61-1.26,2.57,2.57,0,0,1,1.63-.48,3.51,3.51,0,0,1,1.17.2,2.47,2.47,0,0,1,.92.57l-.33.71a2.63,2.63,0,0,0-1.76-.69,1.63,1.63,0,0,0-1,.24.82.82,0,0,0-.13,1.21,1.31,1.31,0,0,0,.67.32l1,.24a2.53,2.53,0,0,1,1.21.58,1.38,1.38,0,0,1,.4,1,1.46,1.46,0,0,1-.62,1.23,2.82,2.82,0,0,1-1.69.45A3.46,3.46,0,0,1,122.84,42.23Z"/><path d="M130.1,34.52v1.1h-1.17v-1.1ZM129,37.06h1V42.9h-1Z"/><path d="M137.1,37.06V42.5a2.67,2.67,0,0,1-.67,2,2.74,2.74,0,0,1-2,.66,4.1,4.1,0,0,1-2.57-.79l.32-.72a4.51,4.51,0,0,0,1.1.55,3.51,3.51,0,0,0,1.15.17,1.69,1.69,0,0,0,1.28-.45,1.82,1.82,0,0,0,.43-1.31v-1a1.9,1.9,0,0,1-.77.86,2.45,2.45,0,0,1-1.24.3,2.58,2.58,0,0,1-1.36-.36,2.47,2.47,0,0,1-.92-1,3.69,3.69,0,0,1,0-3.05,2.47,2.47,0,0,1,.92-1,2.58,2.58,0,0,1,1.36-.36,2.4,2.4,0,0,1,1.22.3,2,2,0,0,1,.78.85v-1Zm-1.45,4.3a2.29,2.29,0,0,0,.48-1.54,2.26,2.26,0,0,0-.48-1.53,1.61,1.61,0,0,0-1.32-.56,1.65,1.65,0,0,0-1.34.56,2.27,2.27,0,0,0-.49,1.53,2.29,2.29,0,0,0,.49,1.54,1.69,1.69,0,0,0,1.34.56A1.66,1.66,0,0,0,135.65,41.36Z"/><path d="M144,39.23V42.9h-1V39.29a1.82,1.82,0,0,0-.32-1.19,1.25,1.25,0,0,0-1-.37,1.71,1.71,0,0,0-1.29.49,1.82,1.82,0,0,0-.48,1.33V42.9h-1V37.06h1v1a2,2,0,0,1,.8-.83,2.54,2.54,0,0,1,1.18-.28C143.3,36.91,144,37.68,144,39.23Z"/><path d="M150.29,37.06h3.6V42.9h-1V37.82h-2.63V42.9h-1V37.82h-1.14v-.76h1.14v-.2a2.44,2.44,0,0,1,.59-1.77,2.6,2.6,0,0,1,1.8-.66l.45,0,.06.76-.56,0a1.43,1.43,0,0,0-1,.42,1.62,1.62,0,0,0-.32,1.11ZM154,34.51v1.12h-1.2V34.51Z"/><path d="M159.07,37.75l-.64.06a1.86,1.86,0,0,0-1.3.57,1.76,1.76,0,0,0-.4,1.18V42.9h-1V37.06h1v1a2.14,2.14,0,0,1,1.93-1.14l.35,0Z"/><path d="M168.5,39.23V42.9h-1V39.28a2,2,0,0,0-.28-1.18,1.06,1.06,0,0,0-.91-.37,1.42,1.42,0,0,0-1.15.49,2,2,0,0,0-.42,1.34V42.9h-1V39.28a2,2,0,0,0-.29-1.19,1.1,1.1,0,0,0-.91-.36,1.42,1.42,0,0,0-1.15.49,2,2,0,0,0-.42,1.34V42.9h-1V37.06h1V38a1.89,1.89,0,0,1,.74-.79,2,2,0,0,1,1.08-.28,1.72,1.72,0,0,1,1.78,1.15,1.9,1.9,0,0,1,.77-.84,2.24,2.24,0,0,1,1.18-.31C167.85,36.91,168.5,37.68,168.5,39.23Z"/><path d="M171.42,41.68V42.9h-1.23V41.68Z"/></g></g></g></g></g></svg>