<svg xmlns="http://www.w3.org/2000/svg" viewBox="0 0 107.45 44.63"><g id="Layer_2" data-name="Layer 2"><g id="Layer_1-2" data-name="Layer 1"><g id="Group_1" data-name="Group 1"><path id="Path_1" data-name="Path 1" d="M24.73,31.31V44.23h4.35V31.31h3V28.4h-3v-.95a2,2,0,0,1,.37-1.37,1.64,1.64,0,0,1,1.28-.43,12.16,12.16,0,0,1,1.6.09V22.49l-1.14-.06A11.12,11.12,0,0,0,30,22.37a5.33,5.33,0,0,0-4,1.35,4.76,4.76,0,0,0-1.32,3.46V28.4h-2.6v2.91Z"/><path id="Path_2" data-name="Path 2" d="M48.83,44.23V28.4H44.48v8.3a5.92,5.92,0,0,1-.8,3.49,3,3,0,0,1-2.57,1,2.36,2.36,0,0,1-2.17-.95,5.64,5.64,0,0,1-.62-2.94V28.4H34v9.74a13.53,13.53,0,0,0,.24,2.69,5.36,5.36,0,0,0,.92,2.05,4.15,4.15,0,0,0,1.75,1.29,7.78,7.78,0,0,0,2.87.46,6.42,6.42,0,0,0,2.7-.61,5,5,0,0,0,2.15-2h.09v2.2Z"/><path id="Path_3" data-name="Path 3" d="M57.64,28.4V23.66H53.3V28.4H50.66v2.91H53.3v9.34a4,4,0,0,0,.4,1.93,2.83,2.83,0,0,0,1.07,1.13,4.44,4.44,0,0,0,1.59.52,12.45,12.45,0,0,0,1.93.15l1.32,0c.41,0,.82-.06,1.22-.12V40.86c-.21,0-.43.07-.64.09s-.46,0-.7,0a1.47,1.47,0,0,1-1.84-1,1.57,1.57,0,0,1,0-.86V31.31h3.18V28.4Z"/><path id="Path_4" data-name="Path 4" d="M77.75,44.23V28.4H73.41v8.3a5.92,5.92,0,0,1-.8,3.49,3,3,0,0,1-2.57,1,2.41,2.41,0,0,1-2.18-.95,5.73,5.73,0,0,1-.61-2.94V28.4H62.9v9.74a14.33,14.33,0,0,0,.25,2.69,5.36,5.36,0,0,0,.92,2.05,4.19,4.19,0,0,0,1.74,1.29,7.84,7.84,0,0,0,2.88.46A6.41,6.41,0,0,0,71.38,44a5,5,0,0,0,2.15-2h.09v2.2Z"/><path id="Path_5" data-name="Path 5" d="M81.06,28.4V44.22h4.35V37.1a8.85,8.85,0,0,1,.21-2,4.45,4.45,0,0,1,.7-1.59,3.61,3.61,0,0,1,1.35-1.1,4.65,4.65,0,0,1,2-.4,5.79,5.79,0,0,1,.83.06,4.55,4.55,0,0,1,.73.09v-4a3,3,0,0,0-1-.15,5.07,5.07,0,0,0-1.59.24,5.65,5.65,0,0,0-1.44.7A4.86,4.86,0,0,0,86.08,30a5.22,5.22,0,0,0-.83,1.35h-.06V28.4Z"/><path id="Path_6" data-name="Path 6" d="M96,37.37h11.42a11,11,0,0,0-.31-3.52,8.27,8.27,0,0,0-1.41-3,6.63,6.63,0,0,0-2.44-2.08,7.42,7.42,0,0,0-3.52-.8,8.14,8.14,0,0,0-3.31.64A7.88,7.88,0,0,0,92.23,33a9.35,9.35,0,0,0-.58,3.31,9.88,9.88,0,0,0,.56,3.36,7.81,7.81,0,0,0,1.62,2.64A7.08,7.08,0,0,0,96.37,44a9.23,9.23,0,0,0,3.37.58,8.27,8.27,0,0,0,4.59-1.22,7.31,7.31,0,0,0,2.82-4.08h-3.83a2.75,2.75,0,0,1-1.17,1.41,4.47,4.47,0,0,1-5.08-.3A4.45,4.45,0,0,1,96,37.37m7.07-2.76H96a6.12,6.12,0,0,1,.18-1,3.55,3.55,0,0,1,.59-1.1,3.32,3.32,0,0,1,1.1-.86,3.74,3.74,0,0,1,1.74-.37,3,3,0,0,1,2.36.86,4.91,4.91,0,0,1,1.1,2.51"/><path id="Path_7" data-name="Path 7" d="M11.39,10.32h4.25a5.74,5.74,0,0,0-.74-2.63,5.49,5.49,0,0,0-1.68-1.87,6.81,6.81,0,0,0-2.33-1.13A9.39,9.39,0,0,0,8.2,4.32,8.75,8.75,0,0,0,4.77,5,7,7,0,0,0,2.23,6.77,7.62,7.62,0,0,0,.64,9.49a10.36,10.36,0,0,0-.52,3.4A9,9,0,0,0,.7,16.17a7.65,7.65,0,0,0,1.62,2.54,7.34,7.34,0,0,0,2.51,1.68A8.77,8.77,0,0,0,8.11,21a7.85,7.85,0,0,0,5.17-1.65,7.18,7.18,0,0,0,2.45-4.81H11.54a4.17,4.17,0,0,1-1.07,2.36,3.16,3.16,0,0,1-2.39.86,3.07,3.07,0,0,1-1.72-.46A3.61,3.61,0,0,1,5.23,16.1a5.7,5.7,0,0,1-.58-1.62,8.42,8.42,0,0,1-.18-1.74A8.88,8.88,0,0,1,4.65,11a5.38,5.38,0,0,1,.61-1.65A3.89,3.89,0,0,1,6.42,8.08a3,3,0,0,1,1.75-.49,2.92,2.92,0,0,1,3.2,2.6.62.62,0,0,1,0,.13"/><path id="Path_8" data-name="Path 8" d="M33,20.57V4.75H28.68v8.3a5.9,5.9,0,0,1-.8,3.48,3,3,0,0,1-2.57,1,2.41,2.41,0,0,1-2.18-.95,5.75,5.75,0,0,1-.61-2.94V4.75H18.18v9.74a13.53,13.53,0,0,0,.24,2.69,5.36,5.36,0,0,0,.92,2.05,4.27,4.27,0,0,0,1.74,1.29A7.63,7.63,0,0,0,24,21a6.34,6.34,0,0,0,2.7-.61,4.9,4.9,0,0,0,2.14-2h.09v2.2Z"/><path id="Path_9" data-name="Path 9" d="M39.71,15.43H35.57A5,5,0,0,0,38,19.78a7.48,7.48,0,0,0,2.36.92A13.49,13.49,0,0,0,43,21a12.83,12.83,0,0,0,2.63-.27A6.67,6.67,0,0,0,48,19.81a4.85,4.85,0,0,0,1.62-1.69,4.94,4.94,0,0,0,.65-2.63,3.7,3.7,0,0,0-.43-1.84,3.76,3.76,0,0,0-1.13-1.25,5.83,5.83,0,0,0-1.63-.83c-.6-.2-1.21-.38-1.83-.52l-1.81-.4c-.59-.12-1.12-.26-1.59-.4a3.6,3.6,0,0,1-1.1-.61,1.2,1.2,0,0,1-.43-1,1.13,1.13,0,0,1,.25-.77,1.52,1.52,0,0,1,.58-.45,2.4,2.4,0,0,1,.8-.19,5.29,5.29,0,0,1,.8-.06,4.19,4.19,0,0,1,2,.46,1.88,1.88,0,0,1,.95,1.68h4.12A5,5,0,0,0,49,6.94a4.75,4.75,0,0,0-1.56-1.56,6.57,6.57,0,0,0-2.17-.82,12.2,12.2,0,0,0-2.48-.25,12.35,12.35,0,0,0-2.51.25,6.4,6.4,0,0,0-2.2.8,4.35,4.35,0,0,0-1.6,1.53,5,5,0,0,0-.58,2.51,3.41,3.41,0,0,0,.43,1.77,3.81,3.81,0,0,0,1.13,1.2,7.29,7.29,0,0,0,1.59.77c.61.18,1.24.34,1.87.49a25.36,25.36,0,0,1,3.61,1q1.32.48,1.32,1.47a1.72,1.72,0,0,1-.28,1,2.41,2.41,0,0,1-.7.61A4.23,4.23,0,0,1,44,18a5.27,5.27,0,0,1-2.2-.07,3.12,3.12,0,0,1-1-.46,2.87,2.87,0,0,1-.77-.82,2.6,2.6,0,0,1-.27-1.23"/><path id="Path_10" data-name="Path 10" d="M58.28,4.75V0H53.94V4.75H51.3v2.9h2.64V17a4,4,0,0,0,.4,1.93,2.77,2.77,0,0,0,1.07,1.13,4.26,4.26,0,0,0,1.59.52,11.34,11.34,0,0,0,1.93.16l1.32,0a10.1,10.1,0,0,0,1.22-.13V17.21c-.21,0-.43.07-.64.09s-.47,0-.7,0a1.48,1.48,0,0,1-1.84-1,1.4,1.4,0,0,1,0-.86V7.66h3.18V4.75Z"/><path id="Path_11" data-name="Path 11" d="M63.06,12.67a9.78,9.78,0,0,0,.58,3.43,7.64,7.64,0,0,0,1.65,2.64,7.54,7.54,0,0,0,2.58,1.65,10.09,10.09,0,0,0,6.73,0,7.34,7.34,0,0,0,2.6-1.65,7.67,7.67,0,0,0,1.66-2.64,10.47,10.47,0,0,0,0-6.86A7.34,7.34,0,0,0,77.2,6.61a7,7,0,0,0-2.6-1.68,9.51,9.51,0,0,0-6.73,0,7.11,7.11,0,0,0-2.58,1.68,7.46,7.46,0,0,0-1.65,2.63,9.78,9.78,0,0,0-.58,3.43m4.35,0a9.69,9.69,0,0,1,.18-1.86,5.17,5.17,0,0,1,.61-1.63,3.7,3.7,0,0,1,1.2-1.13,3.91,3.91,0,0,1,3.67,0,3.26,3.26,0,0,1,1.2,1.13,4.79,4.79,0,0,1,.64,1.63,9.75,9.75,0,0,1,0,3.73,5,5,0,0,1-.64,1.62,3.1,3.1,0,0,1-1.2,1.13,4.09,4.09,0,0,1-3.67,0,3.5,3.5,0,0,1-1.2-1.13,5.47,5.47,0,0,1-.61-1.62,9.79,9.79,0,0,1-.18-1.87"/><path id="Path_12" data-name="Path 12" d="M82.38,4.75V20.57h4.35V11.39a4.28,4.28,0,0,1,.33-1.87,3,3,0,0,1,.8-1.1,2.65,2.65,0,0,1,1-.52,2.89,2.89,0,0,1,.82-.15,2.69,2.69,0,0,1,1.57.37A1.77,1.77,0,0,1,92,9a3.72,3.72,0,0,1,.28,1.28q0,.67,0,1.38v8.87h4.35V11.76a11.48,11.48,0,0,1,.09-1.44A3.93,3.93,0,0,1,97.17,9a2.61,2.61,0,0,1,.89-.92,2.79,2.79,0,0,1,1.5-.37,2.85,2.85,0,0,1,1.43.31,2.07,2.07,0,0,1,.83.83,3.27,3.27,0,0,1,.34,1.22q.06.71.06,1.5v9h4.35V10a7.21,7.21,0,0,0-.43-2.6,4.5,4.5,0,0,0-1.2-1.78,4.78,4.78,0,0,0-1.83-1,8.33,8.33,0,0,0-2.33-.3,5.06,5.06,0,0,0-2.88.8A6.76,6.76,0,0,0,96,7a3.81,3.81,0,0,0-1.9-2,6.37,6.37,0,0,0-2.72-.58A5.78,5.78,0,0,0,88.59,5a6.41,6.41,0,0,0-2,1.9h-.06V4.75Z"/><rect id="Rectangle_5" data-name="Rectangle 5" y="25.52" width="18.8" height="18.8" rx="5"/></g></g></g></svg>