<?xml version="1.0" encoding="UTF-8" standalone="no"?><!DOCTYPE svg PUBLIC "-//W3C//DTD SVG 1.1//EN" "http://www.w3.org/Graphics/SVG/1.1/DTD/svg11.dtd"><svg width="100%" height="100%" viewBox="0 0 168 36" version="1.1" xmlns="http://www.w3.org/2000/svg" xmlns:xlink="http://www.w3.org/1999/xlink" xml:space="preserve" xmlns:serif="http://www.serif.com/" style="fill-rule:evenodd;clip-rule:evenodd;stroke-linejoin:round;stroke-miterlimit:2;"><g id="Group_6318"><g><path d="M17.85,10.275c1.125,1.425 1.725,3.525 1.725,6.3l0,12l-6.15,0l0,-11.7c0,-1.35 -0.225,-2.325 -0.75,-2.925c-0.525,-0.6 -1.275,-0.9 -2.325,-0.9c-1.275,0 -2.325,0.375 -3.075,1.2c-0.75,0.825 -1.125,1.875 -1.125,3.225l0,11.1l-6.15,0l0,-28.575l6.15,0l0,11.325c0.675,-1.05 1.575,-1.8 2.7,-2.325c1.125,-0.525 2.325,-0.825 3.675,-0.825c2.4,0.075 4.2,0.75 5.325,2.1Z" style="fill-rule:nonzero;"/><path d="M39.6,10.35c1.425,1.425 2.1,3.6 2.1,6.525l0,11.775l-5.775,0l0,-2.925c-0.375,1.05 -1.05,1.8 -2.025,2.4c-0.975,0.6 -2.025,0.9 -3.3,0.9c-1.35,0 -2.55,-0.3 -3.675,-0.825c-1.125,-0.525 -1.95,-1.275 -2.625,-2.25c-0.6,-0.975 -0.975,-2.025 -0.975,-3.225c0,-1.425 0.375,-2.625 1.125,-3.45c0.75,-0.825 1.95,-1.425 3.6,-1.8c1.65,-0.375 3.9,-0.6 6.75,-0.6l1.05,0l0,-0.75c0,-1.2 -0.225,-2.025 -0.75,-2.475c-0.525,-0.45 -1.425,-0.75 -2.7,-0.75c-0.975,0 -2.025,0.15 -3.225,0.525c-1.2,0.375 -2.325,0.825 -3.375,1.425l-1.65,-4.125c1.125,-0.675 2.55,-1.275 4.2,-1.725c1.65,-0.45 3.225,-0.675 4.65,-0.675c3,-0.075 5.175,0.6 6.6,2.025Zm-4.8,13.125c0.75,-0.825 1.125,-1.8 1.125,-3.075l0,-0.675l-0.675,0c-2.175,0 -3.75,0.15 -4.575,0.525c-0.9,0.375 -1.35,0.975 -1.35,1.875c0,0.75 0.225,1.35 0.75,1.8c0.525,0.45 1.125,0.75 1.875,0.75c1.125,0 2.1,-0.375 2.85,-1.2Z" style="fill-rule:nonzero;"/><path d="M63.15,9.525c1.35,0.9 2.4,2.1 3.15,3.675c0.75,1.575 1.125,3.375 1.125,5.475c0,2.025 -0.375,3.825 -1.125,5.4c-0.75,1.575 -1.8,2.775 -3.075,3.6c-1.35,0.825 -2.85,1.275 -4.575,1.275c-1.35,0 -2.55,-0.3 -3.675,-0.825c-1.125,-0.525 -1.95,-1.35 -2.55,-2.325l0,10.125l-6.15,0l0,-27.225l6,0l0,2.775c0.6,-1.05 1.425,-1.8 2.55,-2.4c1.125,-0.6 2.325,-0.9 3.75,-0.9c1.725,0.075 3.225,0.45 4.575,1.35Zm-3,13.275c0.75,-0.975 1.2,-2.325 1.2,-4.125c0,-1.8 -0.375,-3.225 -1.2,-4.275c-0.75,-1.05 -1.875,-1.5 -3.3,-1.5c-1.425,0 -2.55,0.525 -3.3,1.5c-0.75,0.975 -1.2,2.4 -1.2,4.2c0,1.8 0.375,3.225 1.2,4.2c0.75,0.975 1.875,1.5 3.3,1.5c1.425,-0.075 2.475,-0.525 3.3,-1.5Z" style="fill-rule:nonzero;"/><path d="M87.975,9.525c1.35,0.9 2.4,2.1 3.15,3.675c0.75,1.575 1.125,3.375 1.125,5.475c0,2.025 -0.375,3.825 -1.125,5.4c-0.75,1.575 -1.8,2.775 -3.075,3.6c-1.35,0.825 -2.85,1.275 -4.575,1.275c-1.35,0 -2.55,-0.3 -3.675,-0.825c-1.125,-0.525 -1.95,-1.35 -2.55,-2.325l0,10.125l-6.15,0l0,-27.225l6,0l0,2.775c0.6,-1.05 1.425,-1.8 2.55,-2.4c1.125,-0.6 2.325,-0.9 3.75,-0.9c1.725,0.075 3.225,0.45 4.575,1.35Zm-3,13.275c0.75,-0.975 1.2,-2.325 1.2,-4.125c0,-1.8 -0.375,-3.225 -1.2,-4.275c-0.75,-1.05 -1.875,-1.5 -3.3,-1.5c-1.425,0 -2.55,0.525 -3.3,1.5c-0.75,0.975 -1.2,2.4 -1.2,4.2c0,1.8 0.375,3.225 1.2,4.2c0.75,0.975 1.875,1.5 3.3,1.5c1.425,0 2.475,-0.525 3.3,-1.5Z" style="fill-rule:nonzero;"/><path d="M109.275,8.775l6,0l-12,27.15l-6.15,0l3.825,-8.4l-8.175,-18.75l6.375,0l5.025,12.6l5.1,-12.6Z" style="fill-rule:nonzero;"/></g></g><path id="Subtraction_1" d="M147.225,29.025c-2.775,0 -5.475,-0.525 -8.025,-1.575c-2.4,-0.975 -4.65,-2.475 -6.525,-4.35c-1.875,-1.8 -3.375,-4.05 -4.425,-6.45c-1.05,-2.475 -1.65,-5.175 -1.65,-7.875l41.1,0c0,2.7 -0.525,5.4 -1.65,7.875c-1.05,2.4 -2.55,4.575 -4.425,6.45c-1.875,1.875 -4.125,3.3 -6.525,4.35c-2.475,1.05 -5.175,1.575 -7.875,1.575Z" style="fill:#ff7cb1;fill-rule:nonzero;"/></svg>