<svg xmlns="http://www.w3.org/2000/svg" viewBox="0 0 96.11 94.6"><defs><style>.cls-1{fill:#ffe200;}.cls-2{fill:#ff80b1;}.cls-3{fill:#75f064;}</style></defs><g id="Layer_2" data-name="Layer 2"><g id="Layer_1-2" data-name="Layer 1"><path class="cls-1" d="M40.35,8.42,26.58.47a3.5,3.5,0,0,0-3.5,6.06l6.77,3.91A42.58,42.58,0,0,0,1.2,61.11a3.5,3.5,0,0,0,3.4,2.67,3.37,3.37,0,0,0,.83-.1A3.51,3.51,0,0,0,8,59.45a35.4,35.4,0,0,1-1-8.39A35.78,35.78,0,0,1,31.15,17.37l-3.53,6.1a3.5,3.5,0,0,0,1.29,4.78,3.45,3.45,0,0,0,1.74.47,3.49,3.49,0,0,0,3-1.75l8-13.77A3.5,3.5,0,0,0,40.35,8.42Z"/><path class="cls-2" d="M72.07,76.9a3.5,3.5,0,0,0-4.95-.1,35.3,35.3,0,0,1-24.51,9.83h-.08a35.27,35.27,0,0,1-24.36-9.71L25.27,75a3.5,3.5,0,1,0-1.81-6.76L8.1,72.37a3.5,3.5,0,0,0-2.47,4.28L9.74,92a3.51,3.51,0,0,0,3.38,2.59,3.16,3.16,0,0,0,.91-.12A3.49,3.49,0,0,0,16.5,90.2l-1.88-7A42.21,42.21,0,0,0,42.53,93.63h.09A42.22,42.22,0,0,0,72,81.85,3.5,3.5,0,0,0,72.07,76.9Z"/><path class="cls-3" d="M95.65,57.53a3.5,3.5,0,0,0-4.79-1.28l-6.7,3.87A42.5,42.5,0,0,0,54.56,10.2a3.5,3.5,0,1,0-2,6.72A35.78,35.78,0,0,1,78.15,51.06a35.41,35.41,0,0,1-.67,6.81l-3.56-6.16a3.5,3.5,0,1,0-6.06,3.49l8,13.78a3.5,3.5,0,0,0,3,1.75,3.46,3.46,0,0,0,1.75-.47l13.77-8A3.5,3.5,0,0,0,95.65,57.53Z"/></g></g></svg>