<svg xmlns="http://www.w3.org/2000/svg" viewBox="0 0 134.08 91.25"><defs><style>.cls-1{fill:#80d3ff;}.cls-2{fill:#ffe200;}</style></defs><g id="Layer_2" data-name="Layer 2"><g id="Layer_1-2" data-name="Layer 1"><g id="Group_6604" data-name="Group 6604"><path class="cls-1" d="M47.16,91.25h-29a17.82,17.82,0,0,1-7.4-34.17A28.64,28.64,0,0,1,33.66,27.56a28.73,28.73,0,0,1,31.4,15.5,20,20,0,0,1,5.68-1.61A19.77,19.77,0,0,1,92.31,55.9c.36.06.72.13,1.1.22a17.76,17.76,0,0,1-.6,34.78,21.58,21.58,0,0,1-3.81.34Zm-29.07-7q35.55,0,70.94,0A13.73,13.73,0,0,0,91.52,84a10.77,10.77,0,0,0,.34-21.08c-.59-.13-1.25-.22-2-.32l-1.1-.16a3.5,3.5,0,0,1-2.93-3,12.75,12.75,0,0,0-20.41-8.52A3.51,3.51,0,0,1,60,49.21,21.74,21.74,0,0,0,35,34.43a21.25,21.25,0,0,0-11.83,6.83c-4.39,5-6.1,10.82-5.23,17.79a3.5,3.5,0,0,1-2.45,3.78l-1,.31a10.81,10.81,0,0,0,3.58,21.1Z"/><path class="cls-2" d="M89.28,34.45a10.36,10.36,0,0,1-5.15-19.31,15.55,15.55,0,0,1,28.73-7.85A12.89,12.89,0,0,1,114.5,7a11.33,11.33,0,0,1,12,7.18,10.34,10.34,0,0,1-.81,20.13,12.88,12.88,0,0,1-2.19.19H89.28Zm.16-7c11.42,0,22.75,0,34.07,0a4.24,4.24,0,0,0,.88-.07,3.4,3.4,0,0,0,2.69-3.26,3.36,3.36,0,0,0-2.61-3.28c-.26-.06-.52-.09-.78-.13l-.56-.08a3.5,3.5,0,0,1-2.93-3,4.31,4.31,0,0,0-6.88-2.88,3.46,3.46,0,0,1-3.18.56A3.51,3.51,0,0,1,107.86,13,8.61,8.61,0,0,0,98,7.17a8.58,8.58,0,0,0-6.74,9.69,3.5,3.5,0,0,1-2.43,3.88l-.43.13a3.37,3.37,0,0,0-2.29,4A3.33,3.33,0,0,0,89.44,27.45Z"/></g></g></g></svg>