<svg xmlns="http://www.w3.org/2000/svg" viewBox="0 0 83.48 98"><defs><style>.cls-1{fill:#ff80b1;}.cls-2{fill:#80d3ff;}</style></defs><g id="Layer_2" data-name="Layer 2"><g id="Layer_1-2" data-name="Layer 1"><path class="cls-1" d="M56.43,63l6-6a3.5,3.5,0,1,0-4.95-5l-6,6-6-6a3.5,3.5,0,0,0-4.95,5l6,6-6,6A3.5,3.5,0,0,0,45.47,74l6-6,6,6A3.5,3.5,0,1,0,62.44,69Z"/><path class="cls-2" d="M83.48,25.5a10.48,10.48,0,0,0-14-9.89V15.5A10.48,10.48,0,0,0,54.47,6,10.49,10.49,0,0,0,34.65,8.67,10.62,10.62,0,0,0,31,8a10.51,10.51,0,0,0-10.5,10.5V51.21l-2.56-2.62A10.5,10.5,0,0,0,3.07,63.44L28.53,88.9a3.39,3.39,0,0,0,.64.49A27.53,27.53,0,0,0,49,98H56A27.81,27.81,0,0,0,83.48,70c0-.08,0-.15,0-.23s0-.16,0-.24ZM55.92,91H49.05a20.54,20.54,0,0,1-15.11-6.74,3.5,3.5,0,0,0-.77-.62L8,58.49a3.5,3.5,0,0,1,2.48-6,3.45,3.45,0,0,1,2.44,1L21.28,62a3.46,3.46,0,0,0,1.88,1,3.24,3.24,0,0,0,.82.11,3.5,3.5,0,0,0,3.5-3.5V18.5a3.5,3.5,0,1,1,7,0V38.68a3.5,3.5,0,0,0,7,0V10.5a3.5,3.5,0,0,1,7,0V35.66h0a3.5,3.5,0,0,0,7,0h0V15.5a3.5,3.5,0,1,1,7,0V39a3.5,3.5,0,1,0,7,0V25.5a3.5,3.5,0,0,1,7,0v44a1.9,1.9,0,0,0,0,.25c0,.1,0,.19,0,.28A20.8,20.8,0,0,1,55.92,91Z"/></g></g></svg>