<svg xmlns="http://www.w3.org/2000/svg" viewBox="0 0 106 78"><defs><style>.cls-1{fill:#75f064;}.cls-2{fill:#80d3ff;}.cls-3{fill:#ff80b1;}</style></defs><g id="Layer_2" data-name="Layer 2"><g id="Layer_1-2" data-name="Layer 1"><g id="Group_6603" data-name="Group 6603"><g id="Rectangle_2485" data-name="Rectangle 2485"><path class="cls-1" d="M94,78H12A12,12,0,0,1,0,66V12A12,12,0,0,1,12,0H94a12,12,0,0,1,12,12V66A12,12,0,0,1,94,78ZM12,7a5,5,0,0,0-5,5V66a5,5,0,0,0,5,5H94a5,5,0,0,0,5-5V12a5,5,0,0,0-5-5Z"/></g><g id="Group_6590" data-name="Group 6590"><g id="Group_5921" data-name="Group 5921"><path class="cls-2" d="M40.25,53.55a3.5,3.5,0,0,1-2.48-1L26.53,41.28a3.49,3.49,0,0,1,0-5L37.77,25.09A3.5,3.5,0,1,1,42.72,30L34,38.81l8.77,8.77a3.5,3.5,0,0,1-2.47,6Z"/></g><g id="Group_6282" data-name="Group 6282"><path class="cls-2" d="M66.12,53.55a3.46,3.46,0,0,1-2.47-1,3.49,3.49,0,0,1,0-5l8.76-8.76L63.65,30a3.5,3.5,0,0,1,4.95-4.95L79.84,36.33a3.51,3.51,0,0,1,0,5L68.6,52.52A3.48,3.48,0,0,1,66.12,53.55Z"/></g><path class="cls-3" d="M50.28,61.81a3.23,3.23,0,0,1-.61-.06,3.51,3.51,0,0,1-2.84-4.06l7-39.3a3.5,3.5,0,1,1,6.89,1.22l-7,39.31A3.51,3.51,0,0,1,50.28,61.81Z"/></g></g></g></g></svg>