<?xml version="1.0" encoding="UTF-8" standalone="no"?>
<!DOCTYPE svg PUBLIC "-//W3C//DTD SVG 1.1//EN" "http://www.w3.org/Graphics/SVG/1.1/DTD/svg11.dtd">
<svg width="100%" height="100%" viewBox="0 0 60 60" version="1.1" xmlns="http://www.w3.org/2000/svg" xmlns:xlink="http://www.w3.org/1999/xlink" xml:space="preserve" xmlns:serif="http://www.serif.com/" style="fill-rule:evenodd;clip-rule:evenodd;stroke-linejoin:round;stroke-miterlimit:2;">
    <g id="Subtraction_1" transform="matrix(0.896603,0,0,0.896603,-406.377,-229.208)">
        <path d="M486.8,316.1C483.1,316.1 479.5,315.4 476.1,314C472.9,312.7 469.9,310.7 467.4,308.2C464.9,305.8 462.9,302.8 461.5,299.6C460.1,296.3 459.3,292.7 459.3,289.1L514.1,289.1C514.1,292.7 513.4,296.3 511.9,299.6C510.5,302.8 508.5,305.7 506,308.2C503.5,310.7 500.5,312.6 497.3,314C494,315.4 490.4,316.1 486.8,316.1Z" style="fill:rgb(255,124,177);fill-rule:nonzero;"/>
    </g>
</svg>
